<svg width="10" height="10" viewBox="0 0 10 10" fill="none" xmlns="http://www.w3.org/2000/svg">
<path d="M6.41406 7.0835L6.95573 8.91683H6.4974L5.41406 7.0835H4.16406C3.9349 7.0835 3.7474 6.896 3.7474 6.66683C3.7474 6.43766 3.9349 6.25016 4.16406 6.25016H5.41406L6.4974 4.41683H6.95573L6.41406 6.25016H7.60156L7.91406 5.8335H8.33073L8.08073 6.66683L8.33073 7.50016H7.91406L7.60156 7.0835H6.41406ZM2.39323 2.91683L2.08073 2.50016H1.66406L1.91406 3.3335L1.66406 4.16683H2.08073L2.39323 3.75016H3.58073L3.03906 5.5835H3.4974L4.58073 3.75016H5.83073C6.0599 3.75016 6.2474 3.56266 6.2474 3.3335C6.2474 3.10433 6.0599 2.91683 5.83073 2.91683H4.58073L3.4974 1.0835H3.03906L3.58073 2.91683H2.39323Z" fill="black"/>
</svg>
