<svg width="16" height="18" viewBox="0 0 16 18" fill="none" xmlns="http://www.w3.org/2000/svg">
<path d="M11.25 5.625H6.75V4.5H11.25V5.625ZM6.75 9H11.25V10.125H6.75V9ZM7.90137 16.875L9.02637 18H0V0H13.5V11.2764L12.375 12.4014V1.125H1.125V16.875H7.90137ZM6.02051 3.77051L3.9375 5.85352L2.41699 4.33301L3.20801 3.54199L3.9375 4.27148L5.22949 2.97949L6.02051 3.77051ZM6.02051 8.27051L3.9375 10.3535L2.41699 8.83301L3.20801 8.04199L3.9375 8.77148L5.22949 7.47949L6.02051 8.27051ZM3.9375 13.2715L5.22949 11.9795L6.02051 12.7705L3.9375 14.8535L2.41699 13.333L3.20801 12.542L3.9375 13.2715ZM15.583 12.7705L10.6875 17.6748L8.32324 15.3018L9.11426 14.5107L10.6875 16.0752L14.792 11.9795L15.583 12.7705Z" fill="white"/>
</svg>
