<svg width="28" height="25" viewBox="0 0 28 25" fill="none" xmlns="http://www.w3.org/2000/svg">
<path d="M4.66667 21.7778V23.3333C4.66667 23.7741 4.51734 24.1438 4.21867 24.4424C3.92 24.7411 3.55082 24.8899 3.11112 24.8889H1.55556C1.11482 24.8889 0.745116 24.7396 0.44645 24.4409C0.147783 24.1422 -0.00103165 23.773 5.38255e-06 23.3333V10.8889L3.26667 1.55556C3.42223 1.08889 3.70067 0.712963 4.102 0.427778C4.50334 0.142593 4.95082 0 5.44445 0H22.5556C23.0481 0 23.4956 0.142593 23.898 0.427778C24.3004 0.712963 24.5788 1.08889 24.7333 1.55556L28 10.8889V23.3333C28 23.7741 27.8512 24.1438 27.5536 24.4424C27.2559 24.7411 26.8862 24.8899 26.4444 24.8889H24.8889C24.4481 24.8889 24.0784 24.7396 23.7798 24.4409C23.4811 24.1422 23.3323 23.773 23.3333 23.3333V21.7778H4.66667ZM4.35556 7.77778H23.6444L22.0111 3.11111H5.98889L4.35556 7.77778ZM7 17.1111C7.64815 17.1111 8.19934 16.884 8.65356 16.4298C9.10778 15.9756 9.33437 15.4249 9.33334 14.7778C9.33334 14.1296 9.10623 13.5784 8.652 13.1242C8.19778 12.67 7.64711 12.4434 7 12.4444C6.35186 12.4444 5.80067 12.6716 5.34645 13.1258C4.89223 13.58 4.66563 14.1307 4.66667 14.7778C4.66667 15.4259 4.89378 15.9771 5.348 16.4313C5.80223 16.8856 6.35289 17.1121 7 17.1111ZM21 17.1111C21.6481 17.1111 22.1993 16.884 22.6536 16.4298C23.1078 15.9756 23.3344 15.4249 23.3333 14.7778C23.3333 14.1296 23.1062 13.5784 22.652 13.1242C22.1978 12.67 21.6471 12.4434 21 12.4444C20.3519 12.4444 19.8007 12.6716 19.3464 13.1258C18.8922 13.58 18.6656 14.1307 18.6667 14.7778C18.6667 15.4259 18.8938 15.9771 19.348 16.4313C19.8022 16.8856 20.3529 17.1121 21 17.1111ZM3.11112 18.6667H24.8889V10.8889H3.11112V18.6667Z" fill="#70798B"/>
</svg>
