<svg width="10" height="10" viewBox="0 0 10 10" fill="none" xmlns="http://www.w3.org/2000/svg">
<path d="M5 2.50016C4.77083 2.50016 4.57458 2.4185 4.41125 2.25516C4.24792 2.09183 4.16639 1.89572 4.16667 1.66683C4.16667 1.43766 4.24833 1.24141 4.41167 1.07808C4.575 0.914747 4.77111 0.833219 5 0.833497C5.22917 0.833497 5.42542 0.915163 5.58875 1.0785C5.75208 1.24183 5.83361 1.43794 5.83333 1.66683C5.83333 1.896 5.75167 2.09225 5.58833 2.25558C5.425 2.41891 5.22889 2.50044 5 2.50016ZM3.75 9.16683V3.75016H1.25V2.91683H8.75V3.75016H6.25V9.16683H5.41667V6.66683H4.58333V9.16683H3.75Z" fill="black"/>
</svg>
