<svg xmlns="http://www.w3.org/2000/svg" width="11" height="14" viewBox="0 0 11 14" fill="none">
<path fill-rule="evenodd" clip-rule="evenodd" d="M5.475 3.21749e-06C4.60075 -0.00116101 3.75554 0.313661 3.09508 0.886465C2.43463 1.45927 2.00343 2.25146 1.88093 3.11708C1.75844 3.98271 1.9529 4.86344 2.42849 5.597C2.90408 6.33057 3.62876 6.86755 4.469 7.109C3.275 7.254 2.251 7.676 1.479 8.437C0.497 9.404 0 10.845 0 12.725C0 12.851 0.0500444 12.9718 0.139124 13.0609C0.228204 13.15 0.349022 13.2 0.475 13.2C0.600978 13.2 0.721796 13.15 0.810876 13.0609C0.899955 12.9718 0.95 12.851 0.95 12.725C0.95 11.005 1.403 9.845 2.146 9.113C2.89 8.38 4.002 8 5.475 8C6.948 8 8.06 8.38 8.805 9.113C9.547 9.846 10 11.005 10 12.725C10 12.851 10.05 12.9718 10.1391 13.0609C10.2282 13.15 10.349 13.2 10.475 13.2C10.601 13.2 10.7218 13.15 10.8109 13.0609C10.9 12.9718 10.95 12.851 10.95 12.725C10.95 10.845 10.453 9.405 9.47 8.437C8.7 7.677 7.675 7.254 6.481 7.109C7.31844 6.86483 8.03982 6.32703 8.51294 5.59417C8.98605 4.86132 9.1792 3.9825 9.05697 3.11879C8.93475 2.25509 8.50535 1.46437 7.84747 0.891562C7.18959 0.318752 6.3473 0.00222674 5.475 3.21749e-06ZM2.8 3.625C2.8 2.91555 3.08183 2.23515 3.58349 1.73349C4.08515 1.23183 4.76555 0.950003 5.475 0.950003C6.18445 0.950003 6.86485 1.23183 7.36651 1.73349C7.86817 2.23515 8.15 2.91555 8.15 3.625C8.15 4.33446 7.86817 5.01485 7.36651 5.51651C6.86485 6.01817 6.18445 6.3 5.475 6.3C4.76555 6.3 4.08515 6.01817 3.58349 5.51651C3.08183 5.01485 2.8 4.33446 2.8 3.625Z" fill="#858585"/>
</svg>