<svg width="89" height="80" viewBox="0 0 89 80" fill="none" xmlns="http://www.w3.org/2000/svg">
<path d="M52.8008 40.0561H54.4608C55.1212 40.0561 55.7545 40.3184 56.2215 40.7854C56.6884 41.2523 56.9508 41.8857 56.9508 42.5461V54.1661C56.9508 54.8264 56.6884 55.4598 56.2215 55.9268C55.7545 56.3937 55.1212 56.6561 54.4608 56.6561H34.5408C33.8804 56.6561 33.247 56.3937 32.7801 55.9268C32.3131 55.4598 32.0508 54.8264 32.0508 54.1661V42.5461C32.0508 41.8857 32.3131 41.2523 32.7801 40.7854C33.247 40.3184 33.8804 40.0561 34.5408 40.0561H36.2008M52.8008 40.0561V31.7561C52.8008 28.988 51.1408 23.4561 44.5008 23.4561C37.8608 23.4561 36.2008 28.988 36.2008 31.7561V40.0561M52.8008 40.0561H36.2008" stroke="#92D050" stroke-width="5" stroke-linecap="round" stroke-linejoin="round"/>
<path d="M3 23.4561L43.3878 3.2622C43.7332 3.08976 44.114 3 44.5 3C44.886 3 45.2668 3.08976 45.6122 3.2622L86 23.4561M77.7 35.9061V69.1061C77.7 71.3074 76.8255 73.4185 75.269 74.9751C73.7124 76.5316 71.6013 77.4061 69.4 77.4061H19.6C17.3987 77.4061 15.2876 76.5316 13.731 74.9751C12.1745 73.4185 11.3 71.3074 11.3 69.1061V35.9061" stroke="#92D050" stroke-width="5" stroke-linecap="round" stroke-linejoin="round"/>
</svg>
