<svg width="83" height="53" viewBox="0 0 83 53" fill="none" xmlns="http://www.w3.org/2000/svg">
<path d="M6.91667 32.2842C7.87732 32.2842 8.54977 31.8999 8.93403 31.1312C9.31829 30.3625 9.31829 29.5939 8.93403 28.8252C8.54977 28.0565 7.87732 27.6722 6.91667 27.6722C5.95602 27.6722 5.28357 28.0565 4.89931 28.8252C4.51505 29.5939 4.51505 30.3625 4.89931 31.1312C5.28357 31.8999 5.95602 32.2842 6.91667 32.2842ZM59.9805 30.1944C59.7403 29.8821 59.278 29.2816 58.5935 28.3928C57.9091 27.504 57.4107 26.8555 57.0985 26.4471C56.7863 26.0388 56.33 25.4502 55.7296 24.6816C55.1292 23.9129 54.6189 23.2763 54.1986 22.7719C53.7783 22.2675 53.292 21.703 52.7396 21.0784C52.1872 20.4539 51.6468 19.8654 51.1185 19.3129L46.6155 24.3573C44.6221 26.6153 42.1184 27.7202 39.1044 27.6722C36.0904 27.6241 33.6227 26.4471 31.7014 24.1411C30.3325 22.4836 29.654 20.586 29.666 18.4481C29.678 16.3103 30.3805 14.4246 31.7734 12.7912L38.1497 5.36869C37.6214 5.10446 37.009 4.90629 36.3125 4.77417C35.616 4.64206 35.0456 4.56999 34.6013 4.55798C34.157 4.54597 33.4786 4.55198 32.566 4.576C31.6534 4.60002 31.065 4.61203 30.8008 4.61203C28.5913 4.61203 26.694 5.40472 25.1089 6.99011L19.4171 12.6831H13.8333V32.2842C13.9534 32.2842 14.2056 32.2782 14.5898 32.2662C14.9741 32.2542 15.2383 32.2542 15.3824 32.2662C15.5265 32.2782 15.7606 32.3022 16.0849 32.3383C16.4091 32.3743 16.6552 32.4283 16.8234 32.5004C16.9915 32.5725 17.2016 32.6746 17.4538 32.8067C17.7059 32.9388 17.9281 33.1009 18.1202 33.2931L28.8194 43.8143C31.5813 46.4806 34.3071 47.8138 36.997 47.8138C38.8702 47.8138 40.3712 47.2493 41.5 46.1203C42.8689 46.6007 44.2198 46.5046 45.5527 45.832C46.8856 45.1595 47.7562 44.1386 48.1645 42.7694C49.9417 42.9135 51.4667 42.385 52.7396 41.184C53.2199 40.7516 53.6522 40.2051 54.0365 39.5446C54.4207 38.884 54.5888 38.2774 54.5408 37.725C54.781 37.9652 55.2973 38.0853 56.0898 38.0853C57.1225 38.0853 58.0472 37.8331 58.8637 37.3286C59.6803 36.8242 60.2747 36.1876 60.6469 35.4189C61.0192 34.6503 61.1633 33.7915 61.0792 32.8427C60.9952 31.8939 60.6289 31.0111 59.9805 30.1944ZM65.7083 32.2842H69.1667V13.8361H65.8164L60.1606 7.35042C58.5755 5.52483 56.5462 4.61203 54.0725 4.61203H48.0564C45.919 4.61203 44.1658 5.41673 42.7969 7.02614L35.2678 15.7818C34.5953 16.5745 34.2591 17.4753 34.2591 18.4842C34.2591 19.493 34.5833 20.3938 35.2318 21.1865C36.2645 22.4116 37.5854 23.0361 39.1944 23.0602C40.8035 23.0842 42.1364 22.4957 43.1931 21.2946L50.1458 13.4397C50.7462 12.8873 51.3887 12.629 52.0731 12.6651C52.7576 12.7011 53.322 13.0254 53.7663 13.6379C54.2106 14.2505 54.3126 14.929 54.0725 15.6737C54.4567 16.1301 55.1292 16.8868 56.0898 17.9437C57.0505 19.0006 57.771 19.8173 58.2513 20.3938C58.9478 21.2586 59.9384 22.5257 61.2233 24.1951C62.5082 25.8646 63.2827 26.8795 63.5469 27.2398C64.7957 28.8252 65.5162 30.5067 65.7083 32.2842ZM76.0833 32.2842C77.044 32.2842 77.7164 31.8999 78.1007 31.1312C78.485 30.3625 78.485 29.5939 78.1007 28.8252C77.7164 28.0565 77.044 27.6722 76.0833 27.6722C75.1227 27.6722 74.4502 28.0565 74.066 28.8252C73.6817 29.5939 73.6817 30.3625 74.066 31.1312C74.4502 31.8999 75.1227 32.2842 76.0833 32.2842ZM83 11.5301V34.5902C83 35.2148 82.7719 35.7552 82.3155 36.2116C81.8592 36.668 81.3189 36.8962 80.6944 36.8962H65.0599C64.4115 38.4576 63.4268 39.7367 62.1059 40.7336C60.785 41.7305 59.284 42.349 57.6029 42.5892C56.8103 43.7422 55.8437 44.7211 54.7029 45.5258C53.5621 46.3305 52.3313 46.877 51.0104 47.1652C50.0017 48.4383 48.7469 49.4172 47.2459 50.1018C45.7449 50.7864 44.2018 51.0806 42.6168 50.9846C41.1758 51.8013 39.6628 52.2757 38.0777 52.4078C36.4926 52.5399 34.9616 52.3718 33.4846 51.9034C32.0076 51.4349 30.6026 50.7924 29.2697 49.9757C27.9368 49.159 26.694 48.1861 25.5412 47.0571L15.2023 36.8962H2.30556C1.68113 36.8962 1.14077 36.668 0.684462 36.2116C0.228154 35.7552 0 35.2148 0 34.5902V10.3771C0 9.75252 0.228154 9.21205 0.684462 8.75565C1.14077 8.29925 1.68113 8.07105 2.30556 8.07105H17.4718C17.808 7.73476 18.3724 7.15826 19.1649 6.34154C19.9575 5.52483 20.5279 4.94832 20.8761 4.61203C21.2243 4.27574 21.7527 3.79532 22.4612 3.17077C23.1696 2.54622 23.776 2.09583 24.2804 1.81959C24.7847 1.54335 25.3971 1.23708 26.1176 0.900787C26.8381 0.564493 27.5826 0.330289 28.3511 0.198173C29.1196 0.0660577 29.9362 0 30.8008 0H35.0156C37.3932 0 39.5667 0.672588 41.536 2.01776C43.5054 0.672588 45.6788 0 48.0564 0H54.0725C54.9131 0 55.7176 0.072063 56.4861 0.216189C57.2546 0.360315 57.9331 0.534467 58.5215 0.738645C59.1099 0.942824 59.7283 1.2611 60.3767 1.69348C61.0252 2.12586 61.5595 2.49818 61.9798 2.81046C62.4001 3.12273 62.9165 3.59714 63.5289 4.2337C64.1413 4.87026 64.6096 5.3747 64.9338 5.74702C65.258 6.11935 65.7504 6.69585 66.4108 7.47653C67.0713 8.25722 67.5696 8.83972 67.9058 9.22406H80.6944C81.3189 9.22406 81.8592 9.45226 82.3155 9.90866C82.7719 10.3651 83 10.9055 83 11.5301Z" fill="#92D050"/>
</svg>
