<svg width="10" height="10" viewBox="0 0 10 10" fill="none" xmlns="http://www.w3.org/2000/svg">
<path d="M7.88333 2.50433C7.8 2.2585 7.56667 2.0835 7.29167 2.0835H2.70833C2.43333 2.0835 2.20417 2.2585 2.11667 2.50433L1.25 5.00016V8.3335C1.25 8.56266 1.4375 8.75016 1.66667 8.75016H2.08333C2.3125 8.75016 2.5 8.56266 2.5 8.3335V7.91683H7.5V8.3335C7.5 8.56266 7.6875 8.75016 7.91667 8.75016H8.33333C8.5625 8.75016 8.75 8.56266 8.75 8.3335V5.00016L7.88333 2.50433ZM2.85417 2.91683H7.14167L7.575 4.16683H2.42083L2.85417 2.91683ZM7.91667 7.0835H2.08333V5.00016H7.91667V7.0835Z" fill="black"/>
<path d="M3.125 6.6665C3.47018 6.6665 3.75 6.38668 3.75 6.0415C3.75 5.69633 3.47018 5.4165 3.125 5.4165C2.77982 5.4165 2.5 5.69633 2.5 6.0415C2.5 6.38668 2.77982 6.6665 3.125 6.6665Z" fill="black"/>
<path d="M6.875 6.6665C7.22018 6.6665 7.5 6.38668 7.5 6.0415C7.5 5.69633 7.22018 5.4165 6.875 5.4165C6.52982 5.4165 6.25 5.69633 6.25 6.0415C6.25 6.38668 6.52982 6.6665 6.875 6.6665Z" fill="black"/>
</svg>
