<svg width="32" height="50" viewBox="0 0 32 50" fill="none" xmlns="http://www.w3.org/2000/svg">
<path d="M15.678 4.68773C15.678 3.44447 16.1733 2.25212 17.0549 1.373C17.9366 0.493884 19.1323 0 20.3792 0C21.626 0 22.8217 0.493884 23.7034 1.373C24.585 2.25212 25.0803 3.44447 25.0803 4.68773C25.0803 5.93099 24.585 7.12333 23.7034 8.00245C22.8217 8.88157 21.626 9.37546 20.3792 9.37546C19.1323 9.37546 17.9366 8.88157 17.0549 8.00245C16.1733 7.12333 15.678 5.93099 15.678 4.68773ZM12.3969 19.4638C12.299 19.5029 12.2108 19.542 12.1129 19.581L11.3294 19.9228C9.72313 20.6358 8.48907 21.9933 7.9308 23.6535L7.67616 24.4153C7.12768 26.056 5.35494 26.9349 3.70953 26.388C2.06411 25.8411 1.18264 24.0734 1.73111 22.4327L1.98576 21.671C3.10229 18.3407 5.57042 15.6258 8.78289 14.1999L9.56642 13.8581C11.6036 12.9596 13.8073 12.4908 16.0403 12.4908C20.4085 12.4908 24.3458 15.1082 26.0206 19.122L27.5289 22.7257L29.6248 23.7707C31.1723 24.5422 31.7991 26.4173 31.0254 27.9603C30.2516 29.5034 28.3712 30.1284 26.8237 29.3569L24.1989 28.058C23.1901 27.5502 22.3967 26.7103 21.9658 25.6653L21.0256 23.4191L19.1353 29.8159L23.9834 35.0896C24.5123 35.6658 24.8845 36.3592 25.0803 37.1209L27.333 46.1155C27.7541 47.7855 26.7355 49.4848 25.051 49.9048C23.3664 50.3247 21.672 49.309 21.2508 47.6293L19.0961 39.0253L12.1717 31.4957C10.7221 29.9233 10.1835 27.726 10.7319 25.6653L12.3871 19.4638H12.3969ZM6.73592 38.8691L9.18445 32.775C9.39013 33.068 9.62519 33.3415 9.87004 33.6149L13.8563 37.9511L12.4361 41.4864C12.201 42.0724 11.8485 42.6095 11.3979 43.0587L5.35494 49.0844C4.13068 50.3052 2.14247 50.3052 0.9182 49.0844C-0.306067 47.8637 -0.306067 45.8811 0.9182 44.6604L6.73592 38.8691Z" fill="#92D050"/>
</svg>
