<svg width="28" height="28" viewBox="0 0 28 28" fill="none" xmlns="http://www.w3.org/2000/svg">
<path fill-rule="evenodd" clip-rule="evenodd" d="M13.0848 27.97C15.8485 28.1511 18.6024 27.5088 21.0009 26.1244C24.2118 24.2648 26.5555 21.207 27.5165 17.6218C28.4774 14.0365 27.9774 10.2166 26.1239 7.00002C24.7391 4.60205 22.6747 2.66847 20.1923 1.4438C17.7098 0.219131 14.9188 -0.241638 12.1727 0.119781C9.42664 0.481201 6.85047 1.64857 4.76844 3.47426C2.68836 5.29994 1.19422 7.70197 0.47742 10.3765C-0.239377 13.0511 -0.14758 15.8782 0.743045 18.5002C1.63367 21.1222 3.28015 23.4213 5.47742 25.107C7.67469 26.7926 10.3212 27.7889 13.0848 27.97ZM3.23719 8.69255C4.28797 6.56393 5.94422 4.7944 8.00086 3.60771C10.7567 2.02019 14.0321 1.59106 17.1044 2.41449C20.1766 3.23791 22.7977 5.24664 24.3934 8.00002C25.579 10.0554 26.1298 12.4166 25.9755 14.7849C25.8192 17.1532 24.9657 19.4222 23.5204 21.3051C22.0751 23.1881 20.1044 24.6003 17.8583 25.3632C15.6102 26.1261 13.1864 26.2054 10.8934 25.5911C8.60242 24.9769 6.54383 23.6966 4.97742 21.9122C3.41297 20.1278 2.41297 17.9194 2.10242 15.5663C1.79383 13.2133 2.18836 10.8212 3.23719 8.69255ZM17.4559 13.159L20.5614 11.366C20.7919 11.2334 21.0634 11.1975 21.3212 11.2661C21.577 11.3347 21.7958 11.5023 21.9266 11.732C22.0595 11.9617 22.0966 12.2347 22.0282 12.4908C21.9579 12.747 21.7919 12.9654 21.5614 13.0981L10.3114 19.5936C10.1278 19.6994 9.91492 19.7443 9.70398 19.7216C9.49304 19.699 9.29578 19.6101 9.13953 19.4677L6.57117 17.134L7.87 16.384L9.92664 17.506L15.0067 14.573L10.7665 12.4019L12.4989 11.4019L17.4559 13.159Z" fill="#70798B"/>
</svg>
