<svg width="18" height="18" viewBox="0 0 18 18" fill="none" xmlns="http://www.w3.org/2000/svg">
<path d="M17.1395 0H10.2552C9.78252 0 9.12048 0.274222 8.7866 0.608108L0.251291 9.14341C0.0903517 9.30511 0 9.52396 0 9.7521C0 9.98023 0.0903517 10.1991 0.251291 10.3608L7.63922 17.7487C7.80092 17.9096 8.01977 18 8.24791 18C8.47604 18 8.69489 17.9096 8.85659 17.7487L17.3919 9.2134C17.7269 8.87837 18 8.21748 18 7.74477V0.86053C17.9991 0.632582 17.9081 0.414229 17.747 0.253045C17.5858 0.0918601 17.3674 0.000906363 17.1395 0ZM12.8368 6.88424C12.6107 6.88416 12.3869 6.83956 12.178 6.75297C11.9692 6.66638 11.7794 6.5395 11.6196 6.37958C11.4598 6.21965 11.333 6.02982 11.2466 5.82091C11.1601 5.61201 11.1157 5.38812 11.1158 5.16203C11.1158 4.93594 11.1604 4.71208 11.247 4.50323C11.3336 4.29438 11.4605 4.10463 11.6204 3.94482C11.7803 3.785 11.9702 3.65825 12.1791 3.5718C12.388 3.48535 12.6119 3.4409 12.838 3.44097C13.2946 3.44112 13.7324 3.62265 14.0552 3.94563C14.3779 4.26861 14.5592 4.70657 14.559 5.16318C14.5589 5.61978 14.3773 6.05763 14.0544 6.38039C13.7314 6.70315 13.2934 6.88439 12.8368 6.88424Z" fill="white"/>
</svg>
