<svg width="22" height="22" viewBox="0 0 22 22" fill="none" xmlns="http://www.w3.org/2000/svg">
<path d="M9.51143 2.66587C9.69902 2.45637 9.92868 2.28878 10.1854 2.17404C10.4422 2.0593 10.7202 2 11.0014 2C11.2826 2 11.5607 2.0593 11.8174 2.17404C12.0742 2.28878 12.3038 2.45637 12.4914 2.66587L13.1914 3.44787C13.3915 3.67137 13.6393 3.847 13.9164 3.96177C14.1935 4.07653 14.4929 4.12749 14.7924 4.11087L15.8424 4.05287C16.1233 4.03739 16.4042 4.08132 16.6669 4.18179C16.9297 4.28227 17.1682 4.43703 17.3671 4.63596C17.5659 4.8349 17.7205 5.07354 17.8209 5.3363C17.9212 5.59906 17.965 5.88003 17.9494 6.16087L17.8914 7.20987C17.875 7.5092 17.926 7.80841 18.0408 8.08536C18.1555 8.36231 18.3311 8.60992 18.5544 8.80987L19.3364 9.50987C19.5461 9.69746 19.7138 9.92718 19.8287 10.184C19.9435 10.4409 20.0029 10.719 20.0029 11.0004C20.0029 11.2817 19.9435 11.5599 19.8287 11.8167C19.7138 12.0736 19.5461 12.3033 19.3364 12.4909L18.5544 13.1909C18.3309 13.3909 18.1553 13.6387 18.0405 13.9158C17.9258 14.193 17.8748 14.4924 17.8914 14.7919L17.9494 15.8419C17.9649 16.1227 17.921 16.4037 17.8205 16.6664C17.72 16.9291 17.5653 17.1677 17.3663 17.3665C17.1674 17.5653 16.9288 17.72 16.666 17.8203C16.4032 17.9207 16.1223 17.9645 15.8414 17.9489L14.7924 17.8909C14.4931 17.8744 14.1939 17.9254 13.9169 18.0402C13.64 18.155 13.3924 18.3305 13.1924 18.5539L12.4924 19.3359C12.3048 19.5455 12.0751 19.7133 11.8183 19.8281C11.5614 19.9429 11.2833 20.0023 11.0019 20.0023C10.7206 20.0023 10.4424 19.9429 10.1856 19.8281C9.92874 19.7133 9.69902 19.5455 9.51143 19.3359L8.81143 18.5539C8.61137 18.3304 8.3636 18.1547 8.08646 18.04C7.80933 17.9252 7.50993 17.8743 7.21043 17.8909L6.16043 17.9489C5.87959 17.9644 5.59863 17.9204 5.33592 17.82C5.0732 17.7195 4.83464 17.5647 4.6358 17.3658C4.43695 17.1668 4.28231 16.9282 4.18196 16.6654C4.08161 16.4027 4.03781 16.1217 4.05343 15.8409L4.11143 14.7919C4.1279 14.4925 4.07686 14.1933 3.9621 13.9164C3.84734 13.6394 3.67179 13.3918 3.44843 13.1919L2.66643 12.4919C2.45676 12.3043 2.28903 12.0746 2.17419 11.8177C2.05936 11.5609 2 11.2827 2 11.0014C2 10.72 2.05936 10.4419 2.17419 10.185C2.28903 9.92818 2.45676 9.69846 2.66643 9.51087L3.44843 8.81087C3.67193 8.61081 3.84756 8.36304 3.96232 8.0859C4.07709 7.80877 4.12805 7.50937 4.11143 7.20987L4.05343 6.15987C4.03809 5.87911 4.08213 5.59827 4.18267 5.33567C4.28321 5.07308 4.43799 4.83464 4.63691 4.63591C4.83583 4.43717 5.07442 4.28262 5.33711 4.18233C5.5998 4.08204 5.88068 4.03827 6.16143 4.05387L7.21043 4.11187C7.50976 4.12834 7.80897 4.07731 8.08592 3.96254C8.36287 3.84778 8.61048 3.67223 8.81043 3.44887L9.51043 2.66687L9.51143 2.66587Z" stroke="white" stroke-width="2.5"/>
<path d="M8.50098 8.50098H8.51098V8.51098H8.50098V8.50098ZM13.501 13.501H13.511V13.511H13.501V13.501Z" stroke="white" stroke-width="3.75" stroke-linejoin="round"/>
<path d="M14.001 8.00098L8.00098 14.001" stroke="white" stroke-width="2.5" stroke-linecap="round" stroke-linejoin="round"/>
</svg>
