<svg width="36" height="36" viewBox="0 0 36 36" fill="none" xmlns="http://www.w3.org/2000/svg">
<path d="M4 36C2.93913 36 1.92172 35.5786 1.17157 34.8284C0.421427 34.0783 -1.44514e-06 33.0609 -1.39876e-06 32L-1.74846e-07 4C-1.28474e-07 2.93913 0.421429 1.92172 1.17157 1.17157C1.92172 0.421426 2.93913 -1.44514e-06 4 -1.39876e-06L32 -1.74846e-07C33.0609 -1.28474e-07 34.0783 0.421427 34.8284 1.17157C35.5786 1.92172 36 2.93913 36 4L36 32C36 33.0609 35.5786 34.0783 34.8284 34.8284C34.0783 35.5786 33.0609 36 32 36L4 36Z" fill="#92D050"/>
<path d="M7 22L16 22L16 29L29 18L16 7L16 14L7 14L7 22Z" fill="white"/>
</svg>
