<svg width="63" height="50" viewBox="0 0 63 50" fill="none" xmlns="http://www.w3.org/2000/svg">
<path d="M12.5948 25.0916L18.8454 35.9363L10.9384 45.8746L0 26.9355L12.5948 25.0916ZM46.879 43.7495V35.28C49.6292 34.0611 51.5669 31.3422 51.5669 28.1231C51.5669 26.3417 50.9418 24.6854 49.9105 23.4352L56.0673 19.8412C59.2238 17.9973 60.3176 13.9657 58.4737 10.8092L54.1609 3.30853C53.2815 1.79281 51.8387 0.686052 50.1469 0.22944C48.4551 -0.227172 46.6514 0.00336962 45.1288 0.870826L19.7204 15.6221C16.7514 17.2785 15.7201 21.0913 17.439 24.0915L22.1269 32.2172C23.8458 35.1862 27.6899 36.2176 30.6589 34.4987L36.5344 31.1234C37.3157 32.9673 38.7845 34.4674 40.6285 35.28V43.7495C40.6285 47.1873 43.4412 50 46.879 50H62.5053V43.7495H46.879Z" fill="#92D050"/>
</svg>
