<svg width="23" height="15" viewBox="0 0 23 15" fill="none" xmlns="http://www.w3.org/2000/svg">
<path d="M22.4547 7.26818C21.5726 5.19385 20.0412 3.39997 18.0498 2.10824C16.0584 0.816515 13.6943 0.0835725 11.2497 0C8.80507 0.0835725 6.44097 0.816515 4.44958 2.10824C2.45819 3.39997 0.926802 5.19385 0.0446809 7.26818C-0.0148936 7.41798 -0.0148936 7.58202 0.0446809 7.73182C0.926802 9.80615 2.45819 11.6 4.44958 12.8918C6.44097 14.1835 8.80507 14.9164 11.2497 15C13.6943 14.9164 16.0584 14.1835 18.0498 12.8918C20.0412 11.6 21.5726 9.80615 22.4547 7.73182C22.5143 7.58202 22.5143 7.41798 22.4547 7.26818ZM11.2497 13.6364C7.27468 13.6364 3.07468 10.9568 1.55218 7.5C3.07468 4.04318 7.27468 1.36364 11.2497 1.36364C15.2247 1.36364 19.4247 4.04318 20.9472 7.5C19.4247 10.9568 15.2247 13.6364 11.2497 13.6364Z" fill="#B8B8B8"/>
<path d="M11.25 3.40918C10.36 3.40918 9.48996 3.64911 8.74994 4.09862C8.00991 4.54814 7.43314 5.18705 7.09254 5.93457C6.75195 6.68208 6.66283 7.50463 6.83647 8.29819C7.0101 9.09174 7.43869 9.82067 8.06802 10.3928C8.69736 10.9649 9.49918 11.3545 10.3721 11.5124C11.245 11.6702 12.1498 11.5892 12.9721 11.2796C13.7943 10.97 14.4971 10.4456 14.9916 9.77288C15.4861 9.10013 15.75 8.30919 15.75 7.50009C15.75 6.41511 15.2759 5.37457 14.432 4.60738C13.5881 3.84019 12.4435 3.40918 11.25 3.40918ZM11.25 10.2274C10.6567 10.2274 10.0766 10.0674 9.58329 9.76773C9.08994 9.46806 8.70543 9.04211 8.47836 8.54377C8.2513 8.04543 8.19189 7.49706 8.30765 6.96802C8.4234 6.43899 8.70912 5.95303 9.12868 5.57162C9.54824 5.1902 10.0828 4.93045 10.6647 4.82522C11.2467 4.71999 11.8499 4.774 12.3981 4.98042C12.9462 5.18684 13.4148 5.5364 13.7444 5.9849C14.0741 6.4334 14.25 6.96069 14.25 7.50009C14.25 8.22341 13.9339 8.9171 13.3713 9.42856C12.8087 9.94002 12.0457 10.2274 11.25 10.2274Z" fill="#B8B8B8"/>
</svg>
