<svg width="18" height="18" viewBox="0 0 18 18" fill="none" xmlns="http://www.w3.org/2000/svg">
<path d="M8.99961 3.6001C9.2383 3.6001 9.46722 3.69492 9.63601 3.8637C9.80479 4.03248 9.89961 4.2614 9.89961 4.5001V8.1001H13.4996C13.7383 8.1001 13.9672 8.19492 14.136 8.3637C14.3048 8.53248 14.3996 8.7614 14.3996 9.0001C14.3996 9.23879 14.3048 9.46771 14.136 9.63649C13.9672 9.80528 13.7383 9.9001 13.4996 9.9001H9.89961V13.5001C9.89961 13.7388 9.80479 13.9677 9.63601 14.1365C9.46722 14.3053 9.2383 14.4001 8.99961 14.4001C8.76091 14.4001 8.532 14.3053 8.36321 14.1365C8.19443 13.9677 8.09961 13.7388 8.09961 13.5001V9.9001H4.49961C4.26091 9.9001 4.032 9.80528 3.86321 9.63649C3.69443 9.46771 3.59961 9.23879 3.59961 9.0001C3.59961 8.7614 3.69443 8.53248 3.86321 8.3637C4.032 8.19492 4.26091 8.1001 4.49961 8.1001H8.09961V4.5001C8.09961 4.2614 8.19443 4.03248 8.36321 3.8637C8.532 3.69492 8.76091 3.6001 8.99961 3.6001Z" fill="white"/>
<path fill-rule="evenodd" clip-rule="evenodd" d="M2.7 18C1.98392 18 1.29716 17.7155 0.790812 17.2092C0.284464 16.7028 0 16.0161 0 15.3V2.7C0 1.98392 0.284464 1.29716 0.790812 0.790812C1.29716 0.284464 1.98392 0 2.7 0H15.3C16.0161 0 16.7028 0.284464 17.2092 0.790812C17.7155 1.29716 18 1.98392 18 2.7V15.3C18 16.0161 17.7155 16.7028 17.2092 17.2092C16.7028 17.7155 16.0161 18 15.3 18H2.7ZM1.8 15.3C1.8 15.5387 1.89482 15.7676 2.0636 15.9364C2.23239 16.1052 2.46131 16.2 2.7 16.2H15.3C15.5387 16.2 15.7676 16.1052 15.9364 15.9364C16.1052 15.7676 16.2 15.5387 16.2 15.3V2.7C16.2 2.46131 16.1052 2.23239 15.9364 2.0636C15.7676 1.89482 15.5387 1.8 15.3 1.8H2.7C2.46131 1.8 2.23239 1.89482 2.0636 2.0636C1.89482 2.23239 1.8 2.46131 1.8 2.7V15.3Z" fill="white"/>
</svg>
