<svg width="155" height="94" viewBox="0 0 155 94" fill="none" xmlns="http://www.w3.org/2000/svg">
<circle cx="8" cy="43" r="8" fill="white"/>
<circle cx="8" cy="43" r="8" fill="white"/>
<circle cx="8" cy="43" r="8" fill="white"/>
<g filter="url(#filter0_d_48_877)">
<path d="M48.2139 83.7772C46.8072 82.3649 46.1039 80.5674 46.1039 78.3847C46.1039 76.202 46.8072 74.4044 48.2139 72.9921L77.9456 42.9479L48.2139 12.9036C46.8072 11.4913 46.0706 9.72714 46.0041 7.61121C45.9376 5.49527 46.6742 3.66437 48.2139 2.1185C49.6205 0.706165 51.4108 0 53.5848 0C55.7587 0 57.549 0.706165 58.9556 2.1185L94.2501 37.5553C95.0173 38.3257 95.5621 39.1602 95.8843 40.059C96.2066 40.9577 96.3652 41.9207 96.3601 42.9479C96.3601 43.975 96.2015 44.938 95.8843 45.8367C95.5672 46.7355 95.0224 47.57 94.2501 48.3404L58.9556 83.7772C57.549 85.1895 55.7919 85.9291 53.6845 85.9959C51.5771 86.0626 49.7535 85.3231 48.2139 83.7772ZM98.8537 83.7772C97.447 82.3649 96.7437 80.5674 96.7437 78.3847C96.7437 76.202 97.447 74.4044 98.8537 72.9921L128.585 42.9479L98.8537 12.9036C97.447 11.4913 96.7104 9.72714 96.6439 7.61121C96.5774 5.49527 97.314 3.66437 98.8537 2.1185C100.26 0.706165 102.051 0 104.225 0C106.399 0 108.189 0.706165 109.595 2.1185L144.89 37.5553C145.657 38.3257 146.202 39.1602 146.524 40.059C146.846 40.9577 147.005 41.9207 147 42.9479C147 43.975 146.839 44.938 146.516 45.8367C146.194 46.7355 145.652 47.57 144.89 48.3404L109.595 83.7772C108.189 85.1895 106.432 85.9291 104.324 85.9959C102.217 86.0626 100.393 85.3231 98.8537 83.7772Z" fill="white"/>
</g>
<circle cx="38" cy="43" r="8" fill="white"/>
<circle cx="38" cy="43" r="8" fill="white"/>
<circle cx="38" cy="43" r="8" fill="white"/>
<defs>
<filter id="filter0_d_48_877" x="46" y="0" width="109" height="94" filterUnits="userSpaceOnUse" color-interpolation-filters="sRGB">
<feFlood flood-opacity="0" result="BackgroundImageFix"/>
<feColorMatrix in="SourceAlpha" type="matrix" values="0 0 0 0 0 0 0 0 0 0 0 0 0 0 0 0 0 0 127 0" result="hardAlpha"/>
<feOffset dx="4" dy="4"/>
<feGaussianBlur stdDeviation="2"/>
<feComposite in2="hardAlpha" operator="out"/>
<feColorMatrix type="matrix" values="0 0 0 0 0 0 0 0 0 0 0 0 0 0 0 0 0 0 0.25 0"/>
<feBlend mode="normal" in2="BackgroundImageFix" result="effect1_dropShadow_48_877"/>
<feBlend mode="normal" in="SourceGraphic" in2="effect1_dropShadow_48_877" result="shape"/>
</filter>
</defs>
</svg>
