<svg width="26" height="28" viewBox="0 0 26 28" fill="none" xmlns="http://www.w3.org/2000/svg">
<path d="M2.8 28C2.03 28 1.3706 27.7256 0.821802 27.1768C0.273002 26.628 -0.000930956 25.9691 2.37691e-06 25.2V5.6C2.37691e-06 4.83 0.274402 4.1706 0.823202 3.6218C1.372 3.073 2.03094 2.79907 2.8 2.8H4.2V0H7V2.8H18.2V0H21V2.8H22.4C23.17 2.8 23.8294 3.0744 24.3782 3.6232C24.927 4.172 25.2009 4.83093 25.2 5.6V25.2C25.2 25.97 24.9256 26.6294 24.3768 27.1782C23.828 27.727 23.1691 28.0009 22.4 28H2.8ZM2.8 25.2H22.4V11.2H2.8V25.2ZM2.8 8.4H22.4V5.6H2.8V8.4ZM12.6 16.8C12.2033 16.8 11.8706 16.6656 11.6018 16.3968C11.333 16.128 11.1991 15.7957 11.2 15.4C11.2 15.0033 11.3344 14.6706 11.6032 14.4018C11.872 14.133 12.2043 13.9991 12.6 14C12.9967 14 13.3294 14.1344 13.5982 14.4032C13.867 14.672 14.0009 15.0043 14 15.4C14 15.7967 13.8656 16.1294 13.5968 16.3982C13.328 16.667 12.9957 16.8009 12.6 16.8ZM7 16.8C6.60334 16.8 6.2706 16.6656 6.0018 16.3968C5.733 16.128 5.59907 15.7957 5.6 15.4C5.6 15.0033 5.7344 14.6706 6.0032 14.4018C6.272 14.133 6.60427 13.9991 7 14C7.39667 14 7.7294 14.1344 7.9982 14.4032C8.267 14.672 8.40094 15.0043 8.4 15.4C8.4 15.7967 8.2656 16.1294 7.9968 16.3982C7.728 16.667 7.39574 16.8009 7 16.8ZM18.2 16.8C17.8033 16.8 17.4706 16.6656 17.2018 16.3968C16.933 16.128 16.7991 15.7957 16.8 15.4C16.8 15.0033 16.9344 14.6706 17.2032 14.4018C17.472 14.133 17.8043 13.9991 18.2 14C18.5967 14 18.9294 14.1344 19.1982 14.4032C19.467 14.672 19.6009 15.0043 19.6 15.4C19.6 15.7967 19.4656 16.1294 19.1968 16.3982C18.928 16.667 18.5957 16.8009 18.2 16.8ZM12.6 22.4C12.2033 22.4 11.8706 22.2656 11.6018 21.9968C11.333 21.728 11.1991 21.3957 11.2 21C11.2 20.6033 11.3344 20.2706 11.6032 20.0018C11.872 19.733 12.2043 19.5991 12.6 19.6C12.9967 19.6 13.3294 19.7344 13.5982 20.0032C13.867 20.272 14.0009 20.6043 14 21C14 21.3967 13.8656 21.7294 13.5968 21.9982C13.328 22.267 12.9957 22.4009 12.6 22.4ZM7 22.4C6.60334 22.4 6.2706 22.2656 6.0018 21.9968C5.733 21.728 5.59907 21.3957 5.6 21C5.6 20.6033 5.7344 20.2706 6.0032 20.0018C6.272 19.733 6.60427 19.5991 7 19.6C7.39667 19.6 7.7294 19.7344 7.9982 20.0032C8.267 20.272 8.40094 20.6043 8.4 21C8.4 21.3967 8.2656 21.7294 7.9968 21.9982C7.728 22.267 7.39574 22.4009 7 22.4ZM18.2 22.4C17.8033 22.4 17.4706 22.2656 17.2018 21.9968C16.933 21.728 16.7991 21.3957 16.8 21C16.8 20.6033 16.9344 20.2706 17.2032 20.0018C17.472 19.733 17.8043 19.5991 18.2 19.6C18.5967 19.6 18.9294 19.7344 19.1982 20.0032C19.467 20.272 19.6009 20.6043 19.6 21C19.6 21.3967 19.4656 21.7294 19.1968 21.9982C18.928 22.267 18.5957 22.4009 18.2 22.4Z" fill="#70798B"/>
</svg>
