<svg width="89" height="56" viewBox="0 0 89 56" fill="none" xmlns="http://www.w3.org/2000/svg">
<path d="M52.8 40.3502H32.05M73.55 40.3502H86V27.2777C86.0028 26.2901 85.6534 25.3338 85.0144 24.5808C84.3755 23.8277 83.4889 23.3272 82.514 23.1692L61.1 19.6002L49.895 4.6602C49.5084 4.14479 49.0072 3.72645 48.4309 3.43833C47.8547 3.1502 47.2193 3.0002 46.575 3.0002H16.446C14.8992 2.98944 13.3801 3.41115 12.0602 4.21776C10.7403 5.02437 9.67205 6.18379 8.976 7.5652L5.656 14.3297C3.9136 17.7933 3.00412 21.616 3 25.4932V40.3502H11.3" stroke="#92D050" stroke-width="5" stroke-linecap="round" stroke-linejoin="round"/>
<path d="M21.6758 52.7998C27.4057 52.7998 32.0508 48.1548 32.0508 42.4248C32.0508 36.6948 27.4057 32.0498 21.6758 32.0498C15.9458 32.0498 11.3008 36.6948 11.3008 42.4248C11.3008 48.1548 15.9458 52.7998 21.6758 52.7998Z" stroke="#92D050" stroke-width="5" stroke-linecap="round" stroke-linejoin="round"/>
<path d="M63.1758 52.7998C68.9057 52.7998 73.5508 48.1548 73.5508 42.4248C73.5508 36.6948 68.9057 32.0498 63.1758 32.0498C57.4458 32.0498 52.8008 36.6948 52.8008 42.4248C52.8008 48.1548 57.4458 52.7998 63.1758 52.7998Z" stroke="#92D050" stroke-width="5" stroke-linecap="round" stroke-linejoin="round"/>
</svg>
