<svg width="10" height="10" viewBox="0 0 10 10" fill="none" xmlns="http://www.w3.org/2000/svg">
<path d="M7.88333 0.837337C7.8 0.591504 7.56667 0.416504 7.29167 0.416504H2.70833C2.43333 0.416504 2.20417 0.591504 2.11667 0.837337L1.25 3.33317V6.6665C1.25 6.89567 1.4375 7.08317 1.66667 7.08317H2.08333C2.3125 7.08317 2.5 6.89567 2.5 6.6665V6.24984H7.5V6.6665C7.5 6.89567 7.6875 7.08317 7.91667 7.08317H8.33333C8.5625 7.08317 8.75 6.89567 8.75 6.6665V3.33317L7.88333 0.837337ZM2.70833 4.99984C2.3625 4.99984 2.08333 4.72067 2.08333 4.37484C2.08333 4.029 2.3625 3.74984 2.70833 3.74984C3.05417 3.74984 3.33333 4.029 3.33333 4.37484C3.33333 4.72067 3.05417 4.99984 2.70833 4.99984ZM7.29167 4.99984C6.94583 4.99984 6.66667 4.72067 6.66667 4.37484C6.66667 4.029 6.94583 3.74984 7.29167 3.74984C7.6375 3.74984 7.91667 4.029 7.91667 4.37484C7.91667 4.72067 7.6375 4.99984 7.29167 4.99984ZM2.08333 2.9165L2.70833 1.0415H7.29167L7.91667 2.9165H2.08333ZM2.91667 8.33317H4.58333V7.49984L7.08333 8.74984H5.41667V9.58317L2.91667 8.33317Z" fill="black"/>
</svg>
