<svg width="28" height="28" viewBox="0 0 28 28" fill="none" xmlns="http://www.w3.org/2000/svg">
<path d="M15.4 14.245L18.55 17.395C18.8067 17.6517 18.935 17.9727 18.935 18.3582C18.935 18.7437 18.8067 19.0759 18.55 19.355C18.27 19.635 17.9373 19.775 17.5518 19.775C17.1663 19.775 16.8341 19.635 16.555 19.355L13.58 16.38C13.2533 16.0533 13.0083 15.6917 12.845 15.295C12.6817 14.8983 12.6 14.4667 12.6 14V9.8C12.6 9.40333 12.7344 9.0706 13.0032 8.8018C13.272 8.533 13.6043 8.39907 14 8.4C14.3967 8.4 14.7294 8.5344 14.9982 8.8032C15.267 9.072 15.4009 9.40427 15.4 9.8V14.245ZM14 2.8C14.3967 2.8 14.7294 2.9344 14.9982 3.2032C15.267 3.472 15.4009 3.80427 15.4 4.2C15.4 4.59667 15.2656 4.9294 14.9968 5.1982C14.728 5.467 14.3957 5.60093 14 5.6C13.6033 5.6 13.2706 5.4656 13.0018 5.1968C12.733 4.928 12.5991 4.59573 12.6 4.2C12.6 3.80333 12.7344 3.4706 13.0032 3.2018C13.272 2.933 13.6043 2.79907 14 2.8ZM25.2 14C25.2 14.3967 25.0656 14.7294 24.7968 14.9982C24.528 15.267 24.1957 15.4009 23.8 15.4C23.4033 15.4 23.0706 15.2656 22.8018 14.9968C22.533 14.728 22.3991 14.3957 22.4 14C22.4 13.6033 22.5344 13.2706 22.8032 13.0018C23.072 12.733 23.4043 12.5991 23.8 12.6C24.1967 12.6 24.5294 12.7344 24.7982 13.0032C25.067 13.272 25.2009 13.6043 25.2 14ZM14 22.4C14.3967 22.4 14.7294 22.5344 14.9982 22.8032C15.267 23.072 15.4009 23.4043 15.4 23.8C15.4 24.1967 15.2656 24.5294 14.9968 24.7982C14.728 25.067 14.3957 25.2009 14 25.2C13.6033 25.2 13.2706 25.0656 13.0018 24.7968C12.733 24.528 12.5991 24.1957 12.6 23.8C12.6 23.4033 12.7344 23.0706 13.0032 22.8018C13.272 22.533 13.6043 22.3991 14 22.4ZM5.6 14C5.6 14.3967 5.4656 14.7294 5.1968 14.9982C4.928 15.267 4.59573 15.4009 4.2 15.4C3.80333 15.4 3.4706 15.2656 3.2018 14.9968C2.933 14.728 2.79907 14.3957 2.8 14C2.8 13.6033 2.9344 13.2706 3.2032 13.0018C3.472 12.733 3.80427 12.5991 4.2 12.6C4.59667 12.6 4.9294 12.7344 5.1982 13.0032C5.467 13.272 5.60093 13.6043 5.6 14ZM14 28C12.0633 28 10.2433 27.6323 8.54 26.8968C6.83667 26.1613 5.355 25.1641 4.095 23.905C2.835 22.645 1.83773 21.1633 1.1032 19.46C0.368667 17.7567 0.000933333 15.9367 0 14C0 12.0633 0.367733 10.2433 1.1032 8.54C1.83867 6.83667 2.83593 5.355 4.095 4.095C5.355 2.835 6.83667 1.83773 8.54 1.1032C10.2433 0.368667 12.0633 0.000933333 14 0C15.9367 0 17.7567 0.367733 19.46 1.1032C21.1633 1.83867 22.645 2.83593 23.905 4.095C25.165 5.355 26.1627 6.83667 26.8982 8.54C27.6337 10.2433 28.0009 12.0633 28 14C28 15.9367 27.6323 17.7567 26.8968 19.46C26.1613 21.1633 25.1641 22.645 23.905 23.905C22.645 25.165 21.1633 26.1627 19.46 26.8982C17.7567 27.6337 15.9367 28.0009 14 28ZM14 25.2C17.1267 25.2 19.775 24.115 21.945 21.945C24.115 19.775 25.2 17.1267 25.2 14C25.2 10.8733 24.115 8.225 21.945 6.055C19.775 3.885 17.1267 2.8 14 2.8C10.8733 2.8 8.225 3.885 6.055 6.055C3.885 8.225 2.8 10.8733 2.8 14C2.8 17.1267 3.885 19.775 6.055 21.945C8.225 24.115 10.8733 25.2 14 25.2Z" fill="#70798B"/>
</svg>
