<svg width="11" height="11" viewBox="0 0 11 11" fill="none" xmlns="http://www.w3.org/2000/svg">
<path d="M5.5 0C4.4122 0 3.34884 0.322569 2.44437 0.926917C1.5399 1.53126 0.834947 2.39025 0.418665 3.39524C0.00238307 4.40023 -0.106535 5.5061 0.105683 6.57299C0.317902 7.63989 0.841726 8.6199 1.61091 9.38909C2.3801 10.1583 3.36011 10.6821 4.427 10.8943C5.4939 11.1065 6.59977 10.9976 7.60476 10.5813C8.60975 10.1651 9.46874 9.4601 10.0731 8.55563C10.6774 7.65116 11 6.5878 11 5.5C10.9987 4.04172 10.4188 2.64356 9.3876 1.6124C8.35644 0.581244 6.95828 0.00134838 5.5 0ZM5.5 9.98148C4.61365 9.98148 3.7472 9.71865 3.01022 9.22621C2.27325 8.73378 1.69885 8.03387 1.35965 7.21499C1.02046 6.3961 0.931712 5.49503 1.10463 4.62571C1.27755 3.75638 1.70437 2.95786 2.33112 2.33111C2.95786 1.70437 3.75639 1.27755 4.62571 1.10463C5.49503 0.93171 6.39611 1.02046 7.21499 1.35965C8.03387 1.69884 8.73378 2.27325 9.22622 3.01022C9.71865 3.7472 9.98148 4.61365 9.98148 5.5C9.98013 6.68815 9.50755 7.82725 8.6674 8.6674C7.82725 9.50754 6.68815 9.98013 5.5 9.98148ZM5.5 1.83333C4.7748 1.83333 4.06589 2.04838 3.46291 2.45128C2.85993 2.85418 2.38997 3.42683 2.11244 4.09683C1.83492 4.76682 1.76231 5.50407 1.90379 6.21533C2.04527 6.92659 2.39448 7.57993 2.90728 8.09272C3.42007 8.60552 4.07341 8.95473 4.78467 9.09621C5.49593 9.23769 6.23318 9.16508 6.90317 8.88756C7.57317 8.61003 8.14582 8.14007 8.54872 7.53709C8.95162 6.93411 9.16667 6.2252 9.16667 5.5C9.16532 4.52795 8.77858 3.5961 8.09124 2.90876C7.4039 2.22142 6.47205 1.83468 5.5 1.83333ZM5.5 7.12963C5.75313 7.13042 6.00293 7.07187 6.22934 6.95867C6.45574 6.84546 6.65246 6.68076 6.8037 6.47778C6.86935 6.39246 6.96574 6.33618 7.07231 6.32095C7.17887 6.30573 7.28717 6.33277 7.37407 6.3963C7.46052 6.46113 7.51766 6.55764 7.53294 6.6646C7.54822 6.77157 7.52039 6.88022 7.45556 6.96667C7.14773 7.3771 6.71856 7.68028 6.22886 7.83325C5.73915 7.98623 5.21372 7.98124 4.727 7.819C4.24028 7.65676 3.81695 7.3455 3.51696 6.92929C3.21698 6.51309 3.05556 6.01304 3.05556 5.5C3.05556 4.98695 3.21698 4.48691 3.51696 4.07071C3.81695 3.6545 4.24028 3.34324 4.727 3.181C5.21372 3.01876 5.73915 3.01377 6.22886 3.16674C6.71856 3.31972 7.14773 3.6229 7.45556 4.03333C7.52039 4.11977 7.54822 4.22843 7.53294 4.33539C7.51766 4.44236 7.46052 4.53887 7.37407 4.6037C7.28717 4.66723 7.17887 4.69427 7.07231 4.67904C6.96574 4.66382 6.86935 4.60754 6.8037 4.52222C6.63704 4.3 6.41633 4.12406 6.16254 4.01113C5.90875 3.89819 5.63031 3.85201 5.35365 3.87695C5.07699 3.9019 4.8113 3.99715 4.58181 4.15366C4.35232 4.31017 4.16664 4.52275 4.04242 4.77121C3.91819 5.01966 3.85953 5.29575 3.87202 5.57325C3.8845 5.85075 3.96772 6.12045 4.11376 6.35675C4.25979 6.59304 4.46381 6.78808 4.70643 6.92335C4.94905 7.05862 5.22222 7.12963 5.5 7.12963Z" fill="#92D050"/>
</svg>
