<svg width="10" height="15" viewBox="0 0 9 5" fill="none" xmlns="http://www.w3.org/2000/svg">
<path d="M0.177866 0.17321C0.296443 0.0577363 0.436838 -3.74308e-07 0.599051 -3.67217e-07C0.761265 -3.60127e-07 0.901502 0.0577363 1.01976 0.17321L4.49407 3.55658L7.98024 0.161663C8.09091 0.0538874 8.22925 -3.36906e-08 8.39526 -2.64342e-08C8.56126 -1.91777e-08 8.70356 0.0577366 8.82213 0.17321C8.94071 0.288683 9 0.425404 9 0.583371C9 0.741338 8.94071 0.877905 8.82213 0.99307L4.82609 4.87297C4.77866 4.91916 4.72727 4.95196 4.67194 4.97136C4.6166 4.99075 4.55731 5.0003 4.49407 4.99999C4.43083 4.99999 4.37154 4.99029 4.31621 4.97089C4.26087 4.95149 4.20949 4.91885 4.16206 4.87297L0.166008 0.981522C0.055336 0.873747 -3.23847e-08 0.740876 -2.54798e-08 0.582909C-1.85748e-08 0.424941 0.059289 0.288375 0.177866 0.17321Z" fill="#ffffff"/>
</svg>
