<svg width="19" height="19" viewBox="0 0 19 19" fill="none" xmlns="http://www.w3.org/2000/svg">
<path d="M5.54232 11.8274L10.3398 7.02992L11.9707 8.66075L7.17315 13.4583H5.54232V11.8274ZM9.50065 15.8333C11.1804 15.8333 12.7913 15.166 13.979 13.9783C15.1667 12.7905 15.834 11.1796 15.834 9.49992C15.834 7.82021 15.1667 6.20931 13.979 5.02158C12.7913 3.83385 11.1804 3.16659 9.50065 3.16659C7.82095 3.16659 6.21004 3.83385 5.02231 5.02158C3.83458 6.20931 3.16732 7.82021 3.16732 9.49992C3.16732 11.1796 3.83458 12.7905 5.02231 13.9783C6.21004 15.166 7.82095 15.8333 9.50065 15.8333ZM13.2215 7.402L12.4298 8.19367L10.8069 6.57075L11.5986 5.77909C11.7648 5.60492 12.0419 5.60492 12.2082 5.77909L13.2215 6.79242C13.3957 6.95867 13.3957 7.23575 13.2215 7.402ZM9.50065 1.58325C10.5403 1.58325 11.5697 1.78802 12.5302 2.18587C13.4907 2.58372 14.3634 3.16686 15.0986 3.90199C15.8337 4.63712 16.4168 5.50985 16.8147 6.47034C17.2125 7.43084 17.4173 8.46029 17.4173 9.49992C17.4173 11.5995 16.5832 13.6132 15.0986 15.0978C13.6139 16.5825 11.6003 17.4166 9.50065 17.4166C8.46102 17.4166 7.43157 17.2118 6.47107 16.814C5.51058 16.4161 4.63785 15.833 3.90272 15.0978C2.41806 13.6132 1.58398 11.5995 1.58398 9.49992C1.58398 7.40029 2.41806 5.38665 3.90272 3.90199C5.38739 2.41733 7.40102 1.58325 9.50065 1.58325Z" fill="#B8B8B8"/>
</svg>
