<svg width="11" height="11" viewBox="0 0 11 11" fill="none" xmlns="http://www.w3.org/2000/svg">
<g clip-path="url(#clip0_206_1789)">
<path d="M5.5 10.3125C4.22365 10.3125 2.99957 9.80547 2.09705 8.90295C1.19453 8.00043 0.6875 6.77635 0.6875 5.5C0.6875 4.22365 1.19453 2.99957 2.09705 2.09705C2.99957 1.19453 4.22365 0.6875 5.5 0.6875C6.77635 0.6875 8.00043 1.19453 8.90295 2.09705C9.80547 2.99957 10.3125 4.22365 10.3125 5.5C10.3125 6.77635 9.80547 8.00043 8.90295 8.90295C8.00043 9.80547 6.77635 10.3125 5.5 10.3125ZM5.5 11C6.95869 11 8.35764 10.4205 9.38909 9.38909C10.4205 8.35764 11 6.95869 11 5.5C11 4.04131 10.4205 2.64236 9.38909 1.61091C8.35764 0.579463 6.95869 0 5.5 0C4.04131 0 2.64236 0.579463 1.61091 1.61091C0.579463 2.64236 0 4.04131 0 5.5C0 6.95869 0.579463 8.35764 1.61091 9.38909C2.64236 10.4205 4.04131 11 5.5 11Z" fill="#2DFDFC"/>
<path d="M4.8125 7.56252C4.8125 7.47224 4.83028 7.38284 4.86483 7.29942C4.89938 7.21601 4.95002 7.14022 5.01386 7.07638C5.0777 7.01254 5.15349 6.9619 5.23691 6.92735C5.32032 6.8928 5.40972 6.87502 5.5 6.87502C5.59028 6.87502 5.67968 6.8928 5.7631 6.92735C5.84651 6.9619 5.9223 7.01254 5.98614 7.07638C6.04998 7.14022 6.10062 7.21601 6.13517 7.29942C6.16972 7.38284 6.1875 7.47224 6.1875 7.56252C6.1875 7.74486 6.11507 7.91972 5.98614 8.04866C5.8572 8.17759 5.68234 8.25002 5.5 8.25002C5.31766 8.25002 5.1428 8.17759 5.01386 8.04866C4.88493 7.91972 4.8125 7.74486 4.8125 7.56252ZM4.87988 3.43408C4.87072 3.34735 4.8799 3.25966 4.90683 3.1767C4.93375 3.09374 4.97781 3.01738 5.03616 2.95255C5.0945 2.88772 5.16582 2.83588 5.2455 2.8004C5.32517 2.76492 5.41141 2.74658 5.49863 2.74658C5.58584 2.74658 5.67208 2.76492 5.75175 2.8004C5.83143 2.83588 5.90275 2.88772 5.96109 2.95255C6.01944 3.01738 6.0635 3.09374 6.09043 3.1767C6.11735 3.25966 6.12653 3.34735 6.11737 3.43408L5.87675 5.84514C5.86867 5.93986 5.82533 6.0281 5.75531 6.09239C5.68529 6.15669 5.59369 6.19237 5.49863 6.19237C5.40356 6.19237 5.31196 6.15669 5.24194 6.09239C5.17192 6.0281 5.12858 5.93986 5.1205 5.84514L4.87988 3.43408Z" fill="#2DFDFC"/>
</g>
<defs>
<clipPath id="clip0_206_1789">
<rect width="11" height="11" fill="white"/>
</clipPath>
</defs>
</svg>
