<svg width="11" height="14" viewBox="0 0 11 14" fill="none" xmlns="http://www.w3.org/2000/svg">
<path d="M3.94732 9.05585C3.94732 9.21868 3.89366 9.37484 3.79814 9.48998C3.70263 9.60512 3.57309 9.6698 3.43801 9.6698C3.30294 9.6698 3.17339 9.60512 3.07788 9.48998C2.98237 9.37484 2.92871 9.21868 2.92871 9.05585C2.92871 8.89302 2.98237 8.73686 3.07788 8.62172C3.17339 8.50658 3.30294 8.44189 3.43801 8.44189C3.57309 8.44189 3.70263 8.50658 3.79814 8.62172C3.89366 8.73686 3.94732 8.89302 3.94732 9.05585ZM5.98452 9.05585C5.98452 9.21868 5.93087 9.37484 5.83535 9.48998C5.73984 9.60512 5.6103 9.6698 5.47522 9.6698C5.34015 9.6698 5.2106 9.60512 5.11509 9.48998C5.01958 9.37484 4.96592 9.21868 4.96592 9.05585C4.96592 8.89302 5.01958 8.73686 5.11509 8.62172C5.2106 8.50658 5.34015 8.44189 5.47522 8.44189C5.6103 8.44189 5.73984 8.50658 5.83535 8.62172C5.93087 8.73686 5.98452 8.89302 5.98452 9.05585ZM7.51243 9.6698C7.64751 9.6698 7.77705 9.60512 7.87256 9.48998C7.96808 9.37484 8.02173 9.21868 8.02173 9.05585C8.02173 8.89302 7.96808 8.73686 7.87256 8.62172C7.77705 8.50658 7.64751 8.44189 7.51243 8.44189C7.37736 8.44189 7.24781 8.50658 7.1523 8.62172C7.05679 8.73686 7.00313 8.89302 7.00313 9.05585C7.00313 9.21868 7.05679 9.37484 7.1523 9.48998C7.24781 9.60512 7.37736 9.6698 7.51243 9.6698Z" fill="#858585"/>
<path fill-rule="evenodd" clip-rule="evenodd" d="M2.03721 4.14419V4.94417C1.9216 4.95399 1.81312 4.96627 1.71024 4.98346C1.25187 5.05713 0.865814 5.21676 0.559214 5.58575C0.252614 5.95535 0.121214 6.42073 0.0595884 6.97328C-7.5892e-09 7.50558 0 8.18277 0 9.02205V9.08958C0 9.92886 -7.5892e-09 10.606 0.0595884 11.1383C0.120705 11.6909 0.253123 12.1563 0.559214 12.5259C0.865814 12.8955 1.25187 13.0539 1.71024 13.1288C2.1518 13.2 2.71356 13.2 3.40978 13.2H7.54022C8.23644 13.2 8.7982 13.2 9.23976 13.1288C9.69813 13.0539 10.0842 12.8955 10.3908 12.5259C10.6974 12.1563 10.8288 11.6909 10.8909 11.1383C10.95 10.606 10.95 9.92886 10.95 9.08958V9.02205C10.95 8.18277 10.95 7.50558 10.8909 6.97328C10.8288 6.42073 10.6974 5.95535 10.3908 5.58575C10.0842 5.21615 9.69813 5.05775 9.23976 4.98346C9.13114 4.96622 9.0221 4.95311 8.91279 4.94417V4.14419C8.91279 3.04508 8.5506 1.99099 7.90588 1.2138C7.26117 0.436618 6.38676 0 5.475 0C4.56324 0 3.68883 0.436618 3.04411 1.2138C2.3994 1.99099 2.03721 3.04508 2.03721 4.14419ZM5.475 0.92093C4.76585 0.92093 4.08575 1.26052 3.58431 1.865C3.08287 2.46948 2.80116 3.28933 2.80116 4.14419V4.91347C2.99113 4.91163 3.19434 4.91163 3.40978 4.91163H7.54022C7.75566 4.91163 7.95887 4.91163 8.14884 4.91347V4.14419C8.14884 2.36372 6.95198 0.92093 5.475 0.92093ZM1.8121 5.89579C1.43827 5.95658 1.24066 6.0677 1.09958 6.23715C0.958507 6.40722 0.866832 6.64543 0.816412 7.09669C0.764972 7.56022 0.763953 8.17479 0.763953 9.05581C0.763953 9.93684 0.764972 10.5514 0.816412 11.0156C0.866832 11.4662 0.959016 11.7044 1.09958 11.8745C1.24066 12.0445 1.43827 12.1551 1.81261 12.2158C2.19662 12.2778 2.70694 12.2791 3.43779 12.2791H7.51221C8.24306 12.2791 8.75287 12.2778 9.1379 12.2158C9.51173 12.1551 9.70934 12.0439 9.85042 11.8745C9.99149 11.7044 10.0832 11.4662 10.1336 11.0149C10.185 10.5514 10.186 9.93684 10.186 9.05581C10.186 8.17479 10.185 7.55961 10.1336 7.09607C10.0832 6.64543 9.99098 6.40722 9.85042 6.23715C9.70934 6.06709 9.51173 5.95658 9.13739 5.89579C8.75287 5.83379 8.24306 5.83256 7.51221 5.83256H3.43779C2.70694 5.83256 2.19662 5.83379 1.8121 5.89579Z" fill="#858585"/>
</svg>
