<svg width="69" height="77" viewBox="0 0 69 77" fill="none" xmlns="http://www.w3.org/2000/svg">
<path d="M2.60938 37.0436C2.60938 35.6598 3.15906 34.3328 4.13751 33.3543C5.11596 32.3759 6.44303 31.8262 7.82677 31.8262H39.1311C40.5149 31.8262 41.8419 32.3759 42.8204 33.3543C43.7988 34.3328 44.3485 35.6598 44.3485 37.0436V68.3479C44.3485 69.7316 43.7988 71.0587 42.8204 72.0372C41.8419 73.0156 40.5149 73.5653 39.1311 73.5653H7.82677C6.44303 73.5653 5.11596 73.0156 4.13751 72.0372C3.15906 71.0587 2.60938 69.7316 2.60938 68.3479V37.0436ZM41.7398 37.0436C41.7398 36.3517 41.465 35.6882 40.9757 35.1989C40.4865 34.7097 39.823 34.4349 39.1311 34.4349H7.82677C7.1349 34.4349 6.47136 34.7097 5.98214 35.1989C5.49291 35.6882 5.21807 36.3517 5.21807 37.0436V68.3479C5.21807 69.0398 5.49291 69.7033 5.98214 70.1925C6.47136 70.6818 7.1349 70.9566 7.82677 70.9566H39.1311C39.823 70.9566 40.4865 70.6818 40.9757 70.1925C41.465 69.7033 41.7398 69.0398 41.7398 68.3479V37.0436Z" fill="#92D050"/>
<rect y="24" width="52.1739" height="13.0435" fill="white"/>
<rect x="39.1328" y="24" width="20.8696" height="52.1739" fill="white"/>
<path d="M9 13.5C9 11.5109 9.79018 9.60322 11.1967 8.1967C12.6032 6.79018 14.5109 6 16.5 6H61.5C63.4891 6 65.3968 6.79018 66.8033 8.1967C68.2098 9.60322 69 11.5109 69 13.5V58.5C69 60.4891 68.2098 62.3968 66.8033 63.8033C65.3968 65.2098 63.4891 66 61.5 66H16.5C14.5109 66 12.6032 65.2098 11.1967 63.8033C9.79018 62.3968 9 60.4891 9 58.5V13.5ZM65.25 13.5C65.25 12.5054 64.8549 11.5516 64.1516 10.8483C63.4484 10.1451 62.4946 9.75 61.5 9.75H16.5C15.5054 9.75 14.5516 10.1451 13.8483 10.8483C13.1451 11.5516 12.75 12.5054 12.75 13.5V58.5C12.75 59.4946 13.1451 60.4484 13.8483 61.1516C14.5516 61.8549 15.5054 62.25 16.5 62.25H61.5C62.4946 62.25 63.4484 61.8549 64.1516 61.1516C64.8549 60.4484 65.25 59.4946 65.25 58.5V13.5Z" fill="#92D050"/>
<path d="M31.728 24.2V18.008H43.296V53H36.384V24.2H31.728Z" fill="#92D050"/>
</svg>
