<svg width="28" height="20" viewBox="0 0 28 20" fill="none" xmlns="http://www.w3.org/2000/svg">
<path d="M26.6 0H1.4C1.0287 0 0.672601 0.1475 0.41005 0.410051C0.1475 0.672602 0 1.0287 0 1.4V7H1.2502C2.6446 7 3.9382 7.9534 4.1622 9.3296C4.23044 9.73145 4.21017 10.1434 4.10279 10.5366C3.99542 10.9298 3.80353 11.2948 3.54052 11.6062C3.27751 11.9176 2.94972 12.1679 2.58001 12.3395C2.21031 12.5112 1.80761 12.6 1.4 12.6H0V18.2C0 18.5713 0.1475 18.9274 0.41005 19.19C0.672601 19.4525 1.0287 19.6 1.4 19.6H26.6C26.9713 19.6 27.3274 19.4525 27.59 19.19C27.8525 18.9274 28 18.5713 28 18.2V12.6H26.6C26.1924 12.6 25.7897 12.5112 25.42 12.3395C25.0503 12.1679 24.7225 11.9176 24.4595 11.6062C24.1965 11.2948 24.0046 10.9298 23.8972 10.5366C23.7898 10.1434 23.7696 9.73145 23.8378 9.3296C24.0618 7.9534 25.3554 7 26.7498 7H28V1.4C28 1.0287 27.8525 0.672602 27.59 0.410051C27.3274 0.1475 26.9713 0 26.6 0ZM9.8 5.6C10.1713 5.6 10.5274 5.7475 10.7899 6.01005C11.0525 6.2726 11.2 6.6287 11.2 7C11.2 7.3713 11.0525 7.7274 10.7899 7.98995C10.5274 8.2525 10.1713 8.4 9.8 8.4C9.4287 8.4 9.0726 8.2525 8.81005 7.98995C8.5475 7.7274 8.4 7.3713 8.4 7C8.4 6.6287 8.5475 6.2726 8.81005 6.01005C9.0726 5.7475 9.4287 5.6 9.8 5.6ZM8.68 14.56L17.08 3.36L19.32 5.04L10.92 16.24L8.68 14.56ZM18.2 14C17.8287 14 17.4726 13.8525 17.2101 13.5899C16.9475 13.3274 16.8 12.9713 16.8 12.6C16.8 12.2287 16.9475 11.8726 17.2101 11.6101C17.4726 11.3475 17.8287 11.2 18.2 11.2C18.5713 11.2 18.9274 11.3475 19.1899 11.6101C19.4525 11.8726 19.6 12.2287 19.6 12.6C19.6 12.9713 19.4525 13.3274 19.1899 13.5899C18.9274 13.8525 18.5713 14 18.2 14Z" fill="#70798B"/>
</svg>
