<svg width="28" height="28" viewBox="0 0 28 28" fill="none" xmlns="http://www.w3.org/2000/svg">
<g filter="url(#filter0_d_227_2055)">
<path d="M12 18.169L7.30584 21.7306C7.07325 21.9197 6.81951 22.0092 6.54463 21.9991C6.26975 21.989 6.02658 21.91 5.81513 21.7621C5.60368 21.615 5.44002 21.4154 5.32415 21.1632C5.20828 20.9111 5.20278 20.6379 5.30766 20.3438L7.11554 14.5128L2.51654 11.2664C2.2628 11.0983 2.10421 10.8777 2.04078 10.6046C1.97734 10.3314 1.98792 10.0792 2.0725 9.84811C2.15708 9.61697 2.30509 9.41189 2.51654 9.23287C2.72799 9.05384 2.98172 8.96475 3.27775 8.96559H8.95514L10.7947 2.91404C10.9005 2.61987 11.0646 2.39378 11.287 2.23577C11.5094 2.07775 11.7471 1.99917 12 2.00001C12.2537 2.00001 12.4918 2.07901 12.7143 2.23703C12.9367 2.39504 13.1004 2.62071 13.2053 2.91404L15.0449 8.96559H20.7222C21.0183 8.96559 21.272 9.0551 21.4835 9.23413C21.6949 9.41315 21.8429 9.61781 21.9275 9.84811C22.0121 10.0792 22.0227 10.3314 21.9592 10.6046C21.8958 10.8777 21.7372 11.0983 21.4835 11.2664L16.8845 14.5128L18.6923 20.3438C18.7981 20.6379 18.793 20.9111 18.6771 21.1632C18.5612 21.4154 18.3972 21.615 18.1849 21.7621C17.9734 21.9092 17.7303 21.9882 17.4554 21.9991C17.1805 22.01 16.9267 21.9205 16.6942 21.7306L12 18.169Z" fill="#FDCA2A"/>
</g>
<defs>
<filter id="filter0_d_227_2055" x="0" y="0" width="28" height="28" filterUnits="userSpaceOnUse" color-interpolation-filters="sRGB">
<feFlood flood-opacity="0" result="BackgroundImageFix"/>
<feColorMatrix in="SourceAlpha" type="matrix" values="0 0 0 0 0 0 0 0 0 0 0 0 0 0 0 0 0 0 127 0" result="hardAlpha"/>
<feOffset dx="2" dy="2"/>
<feGaussianBlur stdDeviation="2"/>
<feComposite in2="hardAlpha" operator="out"/>
<feColorMatrix type="matrix" values="0 0 0 0 0 0 0 0 0 0 0 0 0 0 0 0 0 0 0.25 0"/>
<feBlend mode="normal" in2="BackgroundImageFix" result="effect1_dropShadow_227_2055"/>
<feBlend mode="normal" in="SourceGraphic" in2="effect1_dropShadow_227_2055" result="shape"/>
</filter>
</defs>
</svg>
