<svg width="18" height="18" viewBox="0 0 18 18" fill="none" xmlns="http://www.w3.org/2000/svg">
<path d="M9 7L6.13636 3.5L9 0L11.8636 3.5L9 7ZM0 18V14C0 13.4333 0.160364 12.9583 0.481091 12.575C0.801818 12.1917 1.18691 12 1.63636 12H4.31591C4.58864 12 4.84773 12.0833 5.09318 12.25C5.33864 12.4167 5.53636 12.6417 5.68636 12.925C6.08182 13.575 6.56945 14.0833 7.14927 14.45C7.72909 14.8167 8.346 15 9 15C9.66818 15 10.2922 14.8167 10.872 14.45C11.4518 14.0833 11.9324 13.575 12.3136 12.925C12.4909 12.6417 12.699 12.4167 12.9379 12.25C13.1768 12.0833 13.4255 12 13.6841 12H16.3636C16.8273 12 17.2159 12.1917 17.5295 12.575C17.8432 12.9583 18 13.4333 18 14V18H12.2727V15.725C11.7955 16.1417 11.2805 16.4583 10.728 16.675C10.1755 16.8917 9.59945 17 9 17C8.41364 17 7.84091 16.8873 7.28182 16.662C6.72273 16.4367 6.20455 16.116 5.72727 15.7V18H0ZM2.45455 11C1.77273 11 1.19318 10.7083 0.715909 10.125C0.238636 9.54167 0 8.83333 0 8C0 7.15 0.238636 6.43733 0.715909 5.862C1.19318 5.28667 1.77273 4.99933 2.45455 5C3.15 5 3.73309 5.28767 4.20382 5.863C4.67455 6.43833 4.90964 7.15067 4.90909 8C4.90909 8.83333 4.67373 9.54167 4.203 10.125C3.73227 10.7083 3.14945 11 2.45455 11ZM15.5455 11C14.8636 11 14.2841 10.7083 13.8068 10.125C13.3295 9.54167 13.0909 8.83333 13.0909 8C13.0909 7.15 13.3295 6.43733 13.8068 5.862C14.2841 5.28667 14.8636 4.99933 15.5455 5C16.2409 5 16.824 5.28767 17.2947 5.863C17.7655 6.43833 18.0005 7.15067 18 8C18 8.83333 17.7646 9.54167 17.2939 10.125C16.8232 10.7083 16.2404 11 15.5455 11Z" fill="white"/>
</svg>
