<svg width="69" height="77" viewBox="0 0 69 77" fill="none" xmlns="http://www.w3.org/2000/svg">
<path d="M2.60742 37.0436C2.60742 35.6598 3.15711 34.3328 4.13556 33.3543C5.11401 32.3759 6.44107 31.8262 7.82481 31.8262H39.1292C40.5129 31.8262 41.84 32.3759 42.8184 33.3543C43.7969 34.3328 44.3465 35.6598 44.3465 37.0436V68.3479C44.3465 69.7316 43.7969 71.0587 42.8184 72.0372C41.84 73.0156 40.5129 73.5653 39.1292 73.5653H7.82481C6.44107 73.5653 5.11401 73.0156 4.13556 72.0372C3.15711 71.0587 2.60742 69.7316 2.60742 68.3479V37.0436ZM41.7379 37.0436C41.7379 36.3517 41.463 35.6882 40.9738 35.1989C40.4846 34.7097 39.821 34.4349 39.1292 34.4349H7.82481C7.13294 34.4349 6.46941 34.7097 5.98019 35.1989C5.49096 35.6882 5.21612 36.3517 5.21612 37.0436V68.3479C5.21612 69.0398 5.49096 69.7033 5.98019 70.1925C6.46941 70.6818 7.13294 70.9566 7.82481 70.9566H39.1292C39.821 70.9566 40.4846 70.6818 40.9738 70.1925C41.463 69.7033 41.7379 69.0398 41.7379 68.3479V37.0436Z" fill="#92D050"/>
<rect y="24" width="52.1739" height="13.0435" fill="white"/>
<rect x="39.1309" y="24" width="20.8696" height="52.1739" fill="white"/>
<path d="M9 13.5C9 11.5109 9.79018 9.60322 11.1967 8.1967C12.6032 6.79018 14.5109 6 16.5 6H61.5C63.4891 6 65.3968 6.79018 66.8033 8.1967C68.2098 9.60322 69 11.5109 69 13.5V58.5C69 60.4891 68.2098 62.3968 66.8033 63.8033C65.3968 65.2098 63.4891 66 61.5 66H16.5C14.5109 66 12.6032 65.2098 11.1967 63.8033C9.79018 62.3968 9 60.4891 9 58.5V13.5ZM65.25 13.5C65.25 12.5054 64.8549 11.5516 64.1516 10.8483C63.4484 10.1451 62.4946 9.75 61.5 9.75H16.5C15.5054 9.75 14.5516 10.1451 13.8483 10.8483C13.1451 11.5516 12.75 12.5054 12.75 13.5V58.5C12.75 59.4946 13.1451 60.4484 13.8483 61.1516C14.5516 61.8549 15.5054 62.25 16.5 62.25H61.5C62.4946 62.25 63.4484 61.8549 64.1516 61.1516C64.8549 60.4484 65.25 59.4946 65.25 58.5V13.5Z" fill="#92D050"/>
<path d="M25.64 27.224C25.8 24.024 26.92 21.56 29 19.832C31.112 18.072 33.88 17.192 37.304 17.192C39.64 17.192 41.64 17.608 43.304 18.44C44.968 19.24 46.216 20.344 47.048 21.752C47.912 23.128 48.344 24.696 48.344 26.456C48.344 28.472 47.816 30.184 46.76 31.592C45.736 32.968 44.504 33.896 43.064 34.376V34.568C44.92 35.144 46.36 36.168 47.384 37.64C48.44 39.112 48.968 41 48.968 43.304C48.968 45.224 48.52 46.936 47.624 48.44C46.76 49.944 45.464 51.128 43.736 51.992C42.04 52.824 39.992 53.24 37.592 53.24C33.976 53.24 31.032 52.328 28.76 50.504C26.488 48.68 25.288 45.992 25.16 42.44H31.688C31.752 44.008 32.28 45.272 33.272 46.232C34.296 47.16 35.688 47.624 37.448 47.624C39.08 47.624 40.328 47.176 41.192 46.28C42.088 45.352 42.536 44.168 42.536 42.728C42.536 40.808 41.928 39.432 40.712 38.6C39.496 37.768 37.608 37.352 35.048 37.352H33.656V31.832H35.048C39.592 31.832 41.864 30.312 41.864 27.272C41.864 25.896 41.448 24.824 40.616 24.056C39.816 23.288 38.648 22.904 37.112 22.904C35.608 22.904 34.44 23.32 33.608 24.152C32.808 24.952 32.344 25.976 32.216 27.224H25.64Z" fill="#92D050"/>
</svg>
