<svg width="69" height="77" viewBox="0 0 69 77" fill="none" xmlns="http://www.w3.org/2000/svg">
<path d="M2.60742 37.0436C2.60742 35.6598 3.15711 34.3328 4.13556 33.3543C5.11401 32.3759 6.44107 31.8262 7.82481 31.8262H39.1292C40.5129 31.8262 41.84 32.3759 42.8184 33.3543C43.7969 34.3328 44.3465 35.6598 44.3465 37.0436V68.3479C44.3465 69.7316 43.7969 71.0587 42.8184 72.0372C41.84 73.0156 40.5129 73.5653 39.1292 73.5653H7.82481C6.44107 73.5653 5.11401 73.0156 4.13556 72.0372C3.15711 71.0587 2.60742 69.7316 2.60742 68.3479V37.0436ZM41.7379 37.0436C41.7379 36.3517 41.463 35.6882 40.9738 35.1989C40.4846 34.7097 39.821 34.4349 39.1292 34.4349H7.82481C7.13294 34.4349 6.46941 34.7097 5.98019 35.1989C5.49096 35.6882 5.21612 36.3517 5.21612 37.0436V68.3479C5.21612 69.0398 5.49096 69.7033 5.98019 70.1925C6.46941 70.6818 7.13294 70.9566 7.82481 70.9566H39.1292C39.821 70.9566 40.4846 70.6818 40.9738 70.1925C41.463 69.7033 41.7379 69.0398 41.7379 68.3479V37.0436Z" fill="#92D050"/>
<rect y="24" width="52.1739" height="13.0435" fill="white"/>
<rect x="39.1309" y="24" width="20.8696" height="52.1739" fill="white"/>
<path d="M9 13.5C9 11.5109 9.79018 9.60322 11.1967 8.1967C12.6032 6.79018 14.5109 6 16.5 6H61.5C63.4891 6 65.3968 6.79018 66.8033 8.1967C68.2098 9.60322 69 11.5109 69 13.5V58.5C69 60.4891 68.2098 62.3968 66.8033 63.8033C65.3968 65.2098 63.4891 66 61.5 66H16.5C14.5109 66 12.6032 65.2098 11.1967 63.8033C9.79018 62.3968 9 60.4891 9 58.5V13.5ZM65.25 13.5C65.25 12.5054 64.8549 11.5516 64.1516 10.8483C63.4484 10.1451 62.4946 9.75 61.5 9.75H16.5C15.5054 9.75 14.5516 10.1451 13.8483 10.8483C13.1451 11.5516 12.75 12.5054 12.75 13.5V58.5C12.75 59.4946 13.1451 60.4484 13.8483 61.1516C14.5516 61.8549 15.5054 62.25 16.5 62.25H61.5C62.4946 62.25 63.4484 61.8549 64.1516 61.1516C64.8549 60.4484 65.25 59.4946 65.25 58.5V13.5Z" fill="#92D050"/>
<path d="M27.656 45.416C30.728 42.856 33.176 40.728 35 39.032C36.824 37.304 38.344 35.512 39.56 33.656C40.776 31.8 41.384 29.976 41.384 28.184C41.384 26.552 41 25.272 40.232 24.344C39.464 23.416 38.28 22.952 36.68 22.952C35.08 22.952 33.848 23.496 32.984 24.584C32.12 25.64 31.672 27.096 31.64 28.952H25.112C25.24 25.112 26.376 22.2 28.52 20.216C30.696 18.232 33.448 17.24 36.776 17.24C40.424 17.24 43.224 18.216 45.176 20.168C47.128 22.088 48.104 24.632 48.104 27.8C48.104 30.296 47.432 32.68 46.088 34.952C44.744 37.224 43.208 39.208 41.48 40.904C39.752 42.568 37.496 44.584 34.712 46.952H48.872V52.52H25.16V47.528L27.656 45.416Z" fill="#92D050"/>
</svg>
