<svg width="14" height="18" viewBox="0 0 14 18" fill="none" xmlns="http://www.w3.org/2000/svg">
<path d="M6.60352 0.00120072C6.04354 -0.0121902 5.48654 0.0865398 4.96527 0.291583C4.44401 0.496626 3.96901 0.803842 3.56823 1.19516C3.16744 1.58647 2.84896 2.05399 2.63151 2.5702C2.41407 3.08641 2.30205 3.6409 2.30205 4.20104C2.30205 4.76118 2.41407 5.31567 2.63151 5.83188C2.84896 6.34809 3.16744 6.81561 3.56823 7.20692C3.96901 7.59824 4.44401 7.90545 4.96527 8.1105C5.48654 8.31554 6.04354 8.41427 6.60352 8.40088C7.1635 8.41427 7.72051 8.31554 8.24177 8.1105C8.76303 7.90545 9.23803 7.59824 9.63881 7.20692C10.0396 6.81561 10.3581 6.34809 10.5755 5.83188C10.793 5.31567 10.905 4.76118 10.905 4.20104C10.905 3.6409 10.793 3.08641 10.5755 2.5702C10.3581 2.05399 10.0396 1.58647 9.63881 1.19516C9.23803 0.803842 8.76303 0.496626 8.24177 0.291583C7.72051 0.0865398 7.1635 -0.0121902 6.60352 0.00120072ZM4.20224 10.7998C3.08774 10.7998 2.01888 11.2425 1.23081 12.0306C0.442735 12.8186 0 13.8875 0 15.002V18H13.207V15.002C13.207 13.8875 12.7643 12.8186 11.9762 12.0306C11.1882 11.2425 10.1193 10.7998 9.0048 10.7998H4.20224Z" fill="white"/>
</svg>
