<svg width="10" height="10" viewBox="0 0 10 10" fill="none" xmlns="http://www.w3.org/2000/svg">
<path d="M5.83333 1.87516C5.83333 2.15143 5.72359 2.41638 5.52824 2.61173C5.33289 2.80708 5.06793 2.91683 4.79167 2.91683C4.5154 2.91683 4.25045 2.80708 4.0551 2.61173C3.85975 2.41638 3.75 2.15143 3.75 1.87516C3.75 1.5989 3.85975 1.33394 4.0551 1.13859C4.25045 0.943243 4.5154 0.833496 4.79167 0.833496C5.06793 0.833496 5.33289 0.943243 5.52824 1.13859C5.72359 1.33394 5.83333 1.5989 5.83333 1.87516Z" fill="black"/>
<path fill-rule="evenodd" clip-rule="evenodd" d="M5.22191 4.48074C5.18609 4.47925 5.15024 4.47884 5.11441 4.47949H4.65982L4.62191 4.85949C4.54941 5.58449 4.52399 5.87616 4.58857 6.15158C4.65357 6.42741 4.80607 6.67699 5.19399 7.29408L6.26691 9.00074C6.30987 9.07089 6.32344 9.15515 6.30468 9.23524C6.28591 9.31533 6.23633 9.38479 6.16668 9.42856C6.09703 9.47232 6.01293 9.48686 5.93263 9.46902C5.85233 9.45117 5.7823 9.40239 5.73774 9.33324L4.66482 7.62658L4.63441 7.57824C4.28649 7.02533 4.07191 6.68408 3.98024 6.29491C3.88857 5.90533 3.92899 5.50408 3.99441 4.85366L3.99982 4.79699L4.03149 4.47991C3.82316 4.48116 3.66816 4.48491 3.54399 4.50033C3.38649 4.51908 3.31316 4.55241 3.26107 4.59408C3.20941 4.63574 3.16107 4.69991 3.10816 4.84949C3.05274 5.00658 3.00482 5.21949 2.93357 5.53991L2.80691 6.10991C2.78795 6.18983 2.73829 6.25907 2.66868 6.30265C2.59906 6.34624 2.51509 6.36067 2.43492 6.34281C2.35475 6.32496 2.28483 6.27627 2.24029 6.20726C2.19575 6.13825 2.18016 6.05448 2.19691 5.97408L2.32774 5.38616C2.39357 5.08866 2.44941 4.83866 2.51899 4.64116C2.59274 4.43199 2.69357 4.24824 2.87024 4.10658C3.04691 3.96491 3.24774 3.90658 3.46816 3.87949C3.67607 3.85449 3.93232 3.85449 4.23691 3.85449H5.12482C5.18149 3.85449 5.22524 3.85449 5.26649 3.85741C5.49345 3.87366 5.71043 3.95711 5.88979 4.09714C6.06914 4.23717 6.20275 4.42742 6.27357 4.64366C6.28607 4.68283 6.29691 4.72574 6.31107 4.78074L6.31316 4.79074C6.33649 4.88408 6.34357 4.91074 6.35024 4.92908C6.43774 5.18158 6.70232 5.32699 6.96232 5.26533C6.98149 5.26116 7.00774 5.25241 7.09899 5.22199L7.40316 5.12074C7.48075 5.09811 7.56409 5.10642 7.63569 5.14394C7.70728 5.18145 7.76156 5.24524 7.78712 5.32192C7.81268 5.3986 7.80753 5.4822 7.77277 5.55517C7.738 5.62813 7.67631 5.68479 7.60066 5.71324L7.29649 5.81491C7.23407 5.83722 7.17067 5.85669 7.10649 5.87324C6.83028 5.9388 6.53957 5.89948 6.29069 5.76292C6.04181 5.62635 5.85249 5.40227 5.75941 5.13408C5.74065 5.07549 5.72438 5.01613 5.71066 4.95616L5.70691 4.94199C5.69878 4.907 5.68961 4.87226 5.67941 4.83783C5.64718 4.73963 5.58647 4.65324 5.505 4.58966C5.42353 4.52607 5.32499 4.48816 5.22191 4.48074ZM3.92524 7.03199C3.99419 7.07797 4.04206 7.14945 4.05831 7.23071C4.07456 7.31198 4.05787 7.39637 4.01191 7.46533L2.76191 9.34033C2.73936 9.37496 2.71017 9.40478 2.67602 9.42806C2.64188 9.45134 2.60345 9.46761 2.56297 9.47594C2.52249 9.48427 2.48076 9.48448 2.4402 9.47658C2.39963 9.46867 2.36104 9.45279 2.32666 9.42987C2.29227 9.40694 2.26277 9.37743 2.23987 9.34302C2.21697 9.30862 2.20112 9.27002 2.19324 9.22945C2.18535 9.18888 2.1856 9.14715 2.19395 9.10668C2.20231 9.06621 2.2186 9.02779 2.24191 8.99366L3.49191 7.11866C3.53788 7.04971 3.60936 7.00184 3.69062 6.98559C3.77189 6.96933 3.85628 6.98603 3.92524 7.03199Z" fill="black"/>
</svg>
